<?xml version="1.0" encoding="utf-8"?>
<!-- Generator: Adobe Illustrator 21.0.0, SVG Export Plug-In . SVG Version: 6.00 Build 0)  -->
<svg version="1.1" id="Layer_1" xmlns="http://www.w3.org/2000/svg" xmlns:xlink="http://www.w3.org/1999/xlink" x="0px" y="0px" viewBox="0 0 200 200" style="enable-background:new 0 0 200 200;" xml:space="preserve" width="28px" height="28px">
    <g>
        <path d="M190,119V81h-24.2c-1.4-5-3.3-9.4-5.6-13.7l17.1-17.2L150,22.7l-17.4,17.2c-4.2-2.3-8.6-4.2-13.6-5.6V10H81v24.3
		c-5,1.4-9.4,3.3-13.6,5.6L50.1,22.7L22.7,50l17.1,17.3c-2.3,4.2-4.3,8.7-5.7,13.7H10v38h24.1c1.4,5,3.3,9.5,5.6,13.8l-17,17.1
		L50,177.3l17.1-16.9c4.3,2.4,8.8,4.3,13.8,5.7v24h38v-24c5-1.4,9.5-3.3,13.8-5.7l17,17l27.4-27.3l-17-17.2
		c2.3-4.3,4.3-8.8,5.6-13.8L190,119L190,119z M100,139.6c-21.7,0-39.4-17.7-39.4-39.4S78.3,60.8,100,60.8s39.4,17.7,39.4,39.4
		S121.7,139.6,100,139.6z" style="fill: #5E5D5D; opacity: 0.8;" />
    </g>
</svg>