<?xml version="1.0" encoding="utf-8"?>
<!-- Generator: Adobe Illustrator 21.0.0, SVG Export Plug-In . SVG Version: 6.00 Build 0)  -->
<svg version="1.1" id="Layer_1" xmlns="http://www.w3.org/2000/svg" xmlns:xlink="http://www.w3.org/1999/xlink" x="0px" y="0px" viewBox="0 0 19.9 27.6" style="enable-background:new 0 0 19.9 27.6;" xml:space="preserve" width="23px" height="29px">
    <style type="text/css">
    .st0 {
        opacity: 0.8;
        fill: #5E5D5D;
        enable-background: new;
    }
    </style>
    <g>
        <path class="st0" d="M19.9,0.7c0-0.4-0.3-0.7-0.7-0.7H0.7C0.4,0,0.1,0.3,0.1,0.7v16.7c0,0.2,0.1,0.5,0.3,0.6
		c1.4,1.4,2.7,2.8,4.1,4.2c1.7,1.7,3.4,3.4,5.2,5.2c0.2,0.2,0.5,0.2,0.7,0c3-3,6-6.1,9-9.1c0.3-0.3,0.5-0.8,0.5-1.2v-6.7
		c0,0,0-0.1,0-0.1L19.9,0.7L19.9,0.7z M14.8,10.1l-2.8,2c0,0-0.1,0.1-0.1,0.1l1.1,3.3c0,0.1-0.1,0.2-0.2,0.1l-2.8-2c0,0-0.1,0-0.1,0
		l-2.8,2c-0.1,0.1-0.2,0-0.2-0.1L8,12.3c0-0.1,0-0.1-0.1-0.1l-2.8-2C5,10,5.1,9.9,5.2,9.9h3.5c0.1,0,0.1,0,0.1-0.1l1.1-3.3
		c0-0.1,0.2-0.1,0.2,0l1.1,3.3c0,0.1,0.1,0.1,0.1,0.1h3.5C14.9,9.9,15,10,14.8,10.1z" />
    </g>
</svg>