<?xml version="1.0" encoding="utf-8"?>
<!-- Generator: Adobe Illustrator 21.0.0, SVG Export Plug-In . SVG Version: 6.00 Build 0)  -->
<svg version="1.1" id="Layer_1" xmlns="http://www.w3.org/2000/svg" xmlns:xlink="http://www.w3.org/1999/xlink" x="0px" y="0px" viewBox="0 0 11.3 16.8" style="enable-background:new 0 0 11.3 16.8;" xml:space="preserve" width="29px" height="29px">
    <g style="fill: #5E5D5D; opacity: 0.8;">
        <path d="M6.6,15.6H4.7c-0.3,0-0.5,0.2-0.5,0.5l0.2,0.3c0,0.3,0.2,0.5,0.5,0.5c0,0,0,0,0,0h1.4c0.3,0,0.5-0.2,0.5-0.5c0,0,0,0,0,0
		l0.2-0.3C7.1,15.8,6.9,15.6,6.6,15.6C6.6,15.6,6.6,15.6,6.6,15.6z" />
        <path d="M7.7,13.6H3.6c-0.2,0-0.4,0.2-0.4,0.4v0.6c0,0.2,0.2,0.4,0.4,0.4h4.2c0.2,0,0.4-0.2,0.4-0.4c0,0,0,0,0,0V14
		C8.1,13.8,7.9,13.6,7.7,13.6L7.7,13.6z" />
        <path d="M7.7,11.8H3.6c-0.2,0-0.4,0.2-0.4,0.4v0.6c0,0.2,0.2,0.4,0.4,0.4h4.2c0.2,0,0.4-0.2,0.4-0.4v-0.6C8.1,12,7.9,11.8,7.7,11.8
		C7.7,11.8,7.7,11.8,7.7,11.8z" />
        <path d="M5.6,0C2.5,0,0,2.5,0,5.6C0,6,0,6.4,0.1,6.8c0.1,0.4,0.2,0.7,0.3,1.1c0,0,0,0,0,0c0.5,1,1.2,1.9,2.1,3.1
		c0.1,0.1,0.3,0.2,0.5,0.2h5c0.2,0,0.4-0.1,0.5-0.2c0.2-0.2,0.4-0.5,0.6-0.7C9.5,9.9,9.7,9.6,10,9.3c0.4-0.4,0.7-0.9,0.9-1.4
		c0.1-0.3,0.3-0.7,0.3-1.1c0.1-0.4,0.1-0.8,0.1-1.1C11.3,2.5,8.8,0,5.6,0z M9.9,6.5C9.8,6.8,9.7,7.1,9.6,7.3C9.5,7.7,9.2,8.1,9,8.4
		c-0.3,0.3-0.5,0.6-0.8,1C8.1,9.5,7.9,9.7,7.8,9.9H3.4C2.6,8.9,2.1,8.1,1.6,7.3C1.5,7.1,1.5,6.8,1.4,6.5C1.3,6.2,1.3,5.9,1.3,5.6
		c0-2.4,1.9-4.3,4.3-4.3C8,1.3,10,3.3,10,5.6C10,5.9,9.9,6.2,9.9,6.5z" />
    </g>
</svg>