<svg xmlns="http://www.w3.org/2000/svg" viewBox="0 0 367.4 560.4" width="29px" height="29px">
    <g>
        <path d="M185.4 444.9c-32 0-57.7 25.8-57.7 57.7s25.8 57.7 57.7 57.7 57.7-25.8 57.7-57.7c-.4-31.9-26.1-57.7-57.7-57.7zM324.6 52.8C292.2 17.9 245.6 0 186.7 0 65.4 0 12.2 82.3 1 151.6-.7 161.2-2.3 179 16 179h71s14.1-1.7 19.9-24.9c1.2-4.6 3.3-9.1 6.2-13.7 8.3-15.8 24.9-36.1 73.5-36.1 29.1 0 49.9 6.2 61.9 19.1 14.5 15.4 15.4 37.8 15.4 41.1v2.9c0 27.4-10.4 37-41.1 61.9-34.5 27.8-80.6 62.3-88.1 144.2-.8 7.5-4.6 20.8 12.9 20.8h75.6c12 0 15-13.7 16.2-20.8 5.4-30.3 22.8-42 48.6-62.7 33.2-27 78.9-65.2 79.3-142.1.5-13.3-.3-70.7-42.7-115.9z" style="fill: #5E5D5D; opacity: 0.8;" />
    </g>
</svg>